<?xml version="1.0" encoding="utf-8"?>
<!-- Generator: Adobe Illustrator 15.1.0, SVG Export Plug-In . SVG Version: 6.00 Build 0)  -->
<!DOCTYPE svg PUBLIC "-//W3C//DTD SVG 1.1//EN" "http://www.w3.org/Graphics/SVG/1.1/DTD/svg11.dtd">
<svg version="1.1" id="レイヤー_1" xmlns="http://www.w3.org/2000/svg" xmlns:xlink="http://www.w3.org/1999/xlink" x="0px"
	 y="0px" width="600px" height="600px" viewBox="0.5 600.5 600 600" enable-background="new 0.5 600.5 600 600"
	 xml:space="preserve">
<rect x="0.5" y="600.5" fill="#ECF0F1" width="600" height="600"/>
<g>
	<path fill="#BDC3C7" d="M80.605,944.299c0-13.501-13.5-19.201-20.7-20.4c-2.4-0.301-4.5-2.4-4.5-5.4v-14.7c0-3,2.1-4.5,4.2-5.101
		c2.7-0.6,21-7.8,21-20.699v-38.102c0-66,43.5-81.301,74.401-82.5c3.3-0.301,5.7,1.5,6,5.1l1.2,18.9c0.3,3.301-2.1,5.1-4.2,5.4
		c-23.4,5.1-40.201,22.5-40.201,53.1v31.501c0,25.8-22.2,37.8-24.9,39.001v1.199c8.1,3.301,24.9,13.2,24.9,37.5v32.102
		c0,30.6,16.8,47.699,40.201,52.5c2.1,0.6,4.5,2.4,4.2,5.699l-1.2,18.9c-0.3,3.001-3,5.4-6,5.101c-30.9-1.2-74.401-16.2-74.401-82.2
		V944.299z"/>
	<path fill="#BDC3C7" d="M483.196,949.098c0-24.3,16.8-34.199,24.9-37.5v-1.199c-2.7-1.201-24.9-13.201-24.9-39.001v-31.501
		c0-30.6-16.8-48-40.2-53.1c-2.1-0.301-4.5-2.1-4.2-5.4l1.2-18.9c0.3-3.6,2.699-5.4,6-5.1c30.9,1.199,74.4,16.5,74.4,82.5v38.102
		c0,12.899,18.301,20.1,21,20.699c2.101,0.601,4.2,2.101,4.2,5.101v14.7c0,3-2.1,5.1-4.5,5.4c-7.2,1.199-20.7,6.899-20.7,20.4v36.9
		c0,66-43.5,81-74.4,82.2c-3,0.3-5.7-2.1-6-5.101l-1.2-18.9c-0.3-3.299,2.101-5.1,4.2-5.699c23.4-4.801,40.2-21.9,40.2-52.5V949.098
		z"/>
</g>
<path fill="#3498DB" d="M168.85,919.176v-38.049c0-1.368,0.459-2.686,1.374-3.946s2.001-2.001,3.253-2.227l31.884-4.802
	c1.599-5.255,3.825-10.51,6.68-15.773c-4.57-6.512-10.683-14.4-18.347-23.654c-1.144-1.368-1.716-2.742-1.716-4.119
	c0-1.145,0.516-2.457,1.542-3.943c2.972-4.115,8.602-10.26,16.889-18.431c8.287-8.175,13.687-12.263,16.205-12.263
	c1.486,0,2.967,0.576,4.453,1.721l23.653,18.347c5.035-2.634,10.233-4.805,15.6-6.521c1.833-15.543,3.487-26.17,4.974-31.879
	c0.801-3.202,2.859-4.801,6.173-4.801h38.056c1.603,0,3.004,0.488,4.204,1.458c1.205,0.97,1.861,2.203,1.969,3.685l4.8,31.547
	c5.606,1.832,10.744,3.947,15.432,6.347l24.337-18.347c1.031-1.031,2.41-1.547,4.125-1.547c1.481,0,2.906,0.576,4.275,1.721
	c14.756,13.598,24.178,23.314,28.284,29.146c0.797,0.914,1.2,2.17,1.2,3.773c0,1.369-0.459,2.682-1.369,3.941
	c-1.715,2.4-4.631,6.202-8.746,11.405c-4.116,5.203-7.2,9.234-9.254,12.089c2.973,5.715,5.316,11.316,7.022,16.801l31.378,4.802
	c1.481,0.229,2.682,0.942,3.6,2.138c0.91,1.199,1.369,2.541,1.369,4.035v38.059c0,1.369-0.459,2.682-1.369,3.938
	c-0.918,1.266-2.053,2.006-3.431,2.231l-31.716,4.8c-2.175,6.169-4.396,11.362-6.685,15.6c4.003,5.719,10.116,13.594,18.347,23.653
	c1.145,1.369,1.726,2.803,1.726,4.284s-0.525,2.794-1.557,3.938c-3.075,4.237-8.737,10.406-16.969,18.525
	c-8.231,8.118-13.603,12.169-16.115,12.169c-1.378,0-2.859-0.507-4.453-1.538l-23.663-18.524c-5.024,2.634-10.219,4.8-15.6,6.524
	c-1.818,15.544-3.482,26.166-4.969,31.875c-0.797,3.206-2.854,4.8-6.173,4.8h-38.056c-1.599,0-3-0.487-4.205-1.462
	c-1.205-0.966-1.861-2.194-1.969-3.675l-4.8-31.557c-5.597-1.828-10.739-3.938-15.426-6.338l-24.174,18.338
	c-1.144,1.031-2.573,1.557-4.279,1.557c-1.604,0-3.028-0.638-4.285-1.895c-14.4-13.031-23.826-22.631-28.279-28.8
	c-0.802-1.144-1.2-2.456-1.2-3.938c0-1.368,0.459-2.681,1.374-3.946c1.715-2.4,4.631-6.197,8.747-11.41
	c4.111-5.193,7.2-9.225,9.253-12.084c-3.084-5.709-5.428-11.372-7.027-16.978l-31.373-4.622c-1.486-0.234-2.686-0.947-3.6-2.138
	C169.31,922.017,168.85,920.676,168.85,919.176z M256.624,900.501c0,12.112,4.284,22.463,12.853,31.031s18.914,12.844,31.026,12.844
	c12.12,0,22.461-4.275,31.024-12.844c8.578-8.568,12.862-18.919,12.862-31.031c0-12.117-4.284-22.458-12.862-31.028
	c-8.563-8.569-18.904-12.854-31.024-12.854c-12.112,0-22.458,4.284-31.026,12.854C260.908,878.043,256.624,888.384,256.624,900.501z
	"/>
</svg>
